{
    "asset" : {
        "generator" : "Khronos glTF Blender I/O v1.6.16",
        "version" : "2.0"
    },
    "scene" : 0,
    "scenes" : [
        {
            "name" : "Scene",
            "nodes" : [
                0,
                1
            ]
        }
    ],
    "nodes" : [
        {
            "mesh" : 0,
            "name" : "low",
            "scale" : [
                0.9259080290794373,
                0.9259080290794373,
                0.9259080290794373
            ],
            "translation" : [
                1.2549724578857422,
                0,
                -0.16732966899871826
            ]
        },
        {
            "mesh" : 1,
            "name" : "low.001",
            "scale" : [
                0.9259080290794373,
                0.9259080290794373,
                0.9259080290794373
            ],
            "translation" : [
                1.2549724578857422,
                0,
                -0.16732966899871826
            ]
        }
    ],
    "materials" : [
        {
            "doubleSided" : true,
            "name" : "Material.001",
            "pbrMetallicRoughness" : {
                "baseColorTexture" : {
                    "index" : 0
                },
                "metallicFactor" : 0
            }
        }
    ],
    "meshes" : [
        {
            "name" : "Plane",
            "primitives" : [
                {
                    "attributes" : {
                        "POSITION" : 0,
                        "NORMAL" : 1,
                        "TEXCOORD_0" : 2
                    },
                    "indices" : 3,
                    "material" : 0
                }
            ]
        },
        {
            "name" : "Plane.002",
            "primitives" : [
                {
                    "attributes" : {
                        "POSITION" : 4,
                        "NORMAL" : 5,
                        "TEXCOORD_0" : 6
                    },
                    "indices" : 7,
                    "material" : 0
                }
            ]
        }
    ],
    "textures" : [
        {
            "sampler" : 0,
            "source" : 0
        }
    ],
    "images" : [
        {
            "bufferView" : 4,
            "mimeType" : "image/png",
            "name" : "Cell"
        }
    ],
    "accessors" : [
        {
            "bufferView" : 0,
            "componentType" : 5126,
            "count" : 335,
            "max" : [
                1.0548073053359985,
                1.2340247631072998,
                0.967424750328064
            ],
            "min" : [
                -1.6340543031692505,
                -1.2006473541259766,
                -0.7303175330162048
            ],
            "type" : "VEC3"
        },
        {
            "bufferView" : 1,
            "componentType" : 5126,
            "count" : 335,
            "type" : "VEC3"
        },
        {
            "bufferView" : 2,
            "componentType" : 5126,
            "count" : 335,
            "type" : "VEC2"
        },
        {
            "bufferView" : 3,
            "componentType" : 5123,
            "count" : 1320,
            "type" : "SCALAR"
        },
        {
            "bufferView" : 5,
            "componentType" : 5126,
            "count" : 42,
            "max" : [
                -1.593806505203247,
                0.7840771675109863,
                1.2938673496246338
            ],
            "min" : [
                -3.366495370864868,
                -1.2006473541259766,
                -1.0316166877746582
            ],
            "type" : "VEC3"
        },
        {
            "bufferView" : 6,
            "componentType" : 5126,
            "count" : 42,
            "type" : "VEC3"
        },
        {
            "bufferView" : 7,
            "componentType" : 5126,
            "count" : 42,
            "type" : "VEC2"
        },
        {
            "bufferView" : 8,
            "componentType" : 5123,
            "count" : 144,
            "type" : "SCALAR"
        }
    ],
    "bufferViews" : [
        {
            "buffer" : 0,
            "byteLength" : 4020,
            "byteOffset" : 0
        },
        {
            "buffer" : 0,
            "byteLength" : 4020,
            "byteOffset" : 4020
        },
        {
            "buffer" : 0,
            "byteLength" : 2680,
            "byteOffset" : 8040
        },
        {
            "buffer" : 0,
            "byteLength" : 2640,
            "byteOffset" : 10720
        },
        {
            "buffer" : 0,
            "byteLength" : 1656278,
            "byteOffset" : 13360
        },
        {
            "buffer" : 0,
            "byteLength" : 504,
            "byteOffset" : 1669640
        },
        {
            "buffer" : 0,
            "byteLength" : 504,
            "byteOffset" : 1670144
        },
        {
            "buffer" : 0,
            "byteLength" : 336,
            "byteOffset" : 1670648
        },
        {
            "buffer" : 0,
            "byteLength" : 288,
            "byteOffset" : 1670984
        }
    ],
    "samplers" : [
        {
            "magFilter" : 9729,
            "minFilter" : 9987
        }
    ],
    "buffers" : [
        {
            "byteLength" : 1671272,
            "uri" : "data:application/octet-stream;base64,"
        }
    ]
}
