{
    "asset" : {
        "generator" : "Khronos glTF Blender I/O v1.7.33",
        "version" : "2.0"
    },
    "scene" : 0,
    "scenes" : [
        {
            "name" : "Scene",
            "nodes" : [
                0
            ]
        }
    ],
    "nodes" : [
        {
            "mesh" : 0,
            "name" : "VisualSceneNode1",
            "translation" : [
                -639.296630859375,
                0,
                234.49522399902344
            ]
        }
    ],
    "materials" : [
        {
            "doubleSided" : true,
            "name" : "Material3",
            "pbrMetallicRoughness" : {
                "baseColorFactor" : [
                    0.800000011920929,
                    0.800000011920929,
                    0.800000011920929,
                    1
                ],
                "metallicFactor" : 0,
                "roughnessFactor" : 0.5
            }
        },
        {
            "doubleSided" : true,
            "name" : "Material4",
            "pbrMetallicRoughness" : {
                "baseColorFactor" : [
                    0.800000011920929,
                    0.800000011920929,
                    0.800000011920929,
                    1
                ],
                "metallicFactor" : 0,
                "roughnessFactor" : 0.5
            }
        },
        {
            "doubleSided" : true,
            "name" : "Material9",
            "pbrMetallicRoughness" : {
                "baseColorFactor" : [
                    0.800000011920929,
                    0.800000011920929,
                    0.800000011920929,
                    1
                ],
                "metallicFactor" : 0,
                "roughnessFactor" : 0.5
            }
        },
        {
            "doubleSided" : true,
            "name" : "Material1",
            "pbrMetallicRoughness" : {
                "baseColorFactor" : [
                    0.800000011920929,
                    0.800000011920929,
                    0.800000011920929,
                    1
                ],
                "metallicFactor" : 0,
                "roughnessFactor" : 0.5
            }
        },
        {
            "doubleSided" : true,
            "name" : "Material7",
            "pbrMetallicRoughness" : {
                "baseColorFactor" : [
                    0.800000011920929,
                    0.800000011920929,
                    0.800000011920929,
                    1
                ],
                "metallicFactor" : 0,
                "roughnessFactor" : 0.5
            }
        },
        {
            "doubleSided" : true,
            "name" : "Material2",
            "pbrMetallicRoughness" : {
                "baseColorFactor" : [
                    0.9411759972572327,
                    0.9686269760131836,
                    0.9529410004615784,
                    1
                ],
                "metallicFactor" : 0,
                "roughnessFactor" : 0.5
            }
        }
    ],
    "meshes" : [
        {
            "name" : "Geometry1",
            "primitives" : [
                {
                    "attributes" : {
                        "POSITION" : 0,
                        "NORMAL" : 1,
                        "TEXCOORD_0" : 2
                    },
                    "indices" : 3,
                    "material" : 0
                },
                {
                    "attributes" : {
                        "POSITION" : 4,
                        "NORMAL" : 5,
                        "TEXCOORD_0" : 6
                    },
                    "indices" : 7,
                    "material" : 1
                },
                {
                    "attributes" : {
                        "POSITION" : 8,
                        "NORMAL" : 9,
                        "TEXCOORD_0" : 10
                    },
                    "indices" : 11,
                    "material" : 2
                },
                {
                    "attributes" : {
                        "POSITION" : 12,
                        "NORMAL" : 13,
                        "TEXCOORD_0" : 14
                    },
                    "indices" : 15,
                    "material" : 3
                },
                {
                    "attributes" : {
                        "POSITION" : 16,
                        "NORMAL" : 17,
                        "TEXCOORD_0" : 18
                    },
                    "indices" : 19,
                    "material" : 4
                },
                {
                    "attributes" : {
                        "POSITION" : 20,
                        "NORMAL" : 21,
                        "TEXCOORD_0" : 22
                    },
                    "indices" : 23,
                    "material" : 5
                }
            ]
        }
    ],
    "accessors" : [
        {
            "bufferView" : 0,
            "componentType" : 5126,
            "count" : 835,
            "max" : [
                724.4560546875,
                5.517999649047852,
                -223.0330047607422
            ],
            "min" : [
                549.197998046875,
                0,
                -314.77801513671875
            ],
            "type" : "VEC3"
        },
        {
            "bufferView" : 1,
            "componentType" : 5126,
            "count" : 835,
            "type" : "VEC3"
        },
        {
            "bufferView" : 2,
            "componentType" : 5126,
            "count" : 835,
            "type" : "VEC2"
        },
        {
            "bufferView" : 3,
            "componentType" : 5123,
            "count" : 1017,
            "type" : "SCALAR"
        },
        {
            "bufferView" : 4,
            "componentType" : 5126,
            "count" : 405,
            "max" : [
                723.6710815429688,
                5.491548538208008,
                -223.05201721191406
            ],
            "min" : [
                550.0020141601562,
                0,
                -314.7590026855469
            ],
            "type" : "VEC3"
        },
        {
            "bufferView" : 5,
            "componentType" : 5126,
            "count" : 405,
            "type" : "VEC3"
        },
        {
            "bufferView" : 6,
            "componentType" : 5126,
            "count" : 405,
            "type" : "VEC2"
        },
        {
            "bufferView" : 7,
            "componentType" : 5123,
            "count" : 408,
            "type" : "SCALAR"
        },
        {
            "bufferView" : 8,
            "componentType" : 5126,
            "count" : 3430,
            "max" : [
                734.3190307617188,
                17.42959976196289,
                -133.6490020751953
            ],
            "min" : [
                539.35400390625,
                4.075369834899902,
                -315.3590087890625
            ],
            "type" : "VEC3"
        },
        {
            "bufferView" : 9,
            "componentType" : 5126,
            "count" : 3430,
            "type" : "VEC3"
        },
        {
            "bufferView" : 10,
            "componentType" : 5126,
            "count" : 3430,
            "type" : "VEC2"
        },
        {
            "bufferView" : 11,
            "componentType" : 5123,
            "count" : 3810,
            "type" : "SCALAR"
        },
        {
            "bufferView" : 12,
            "componentType" : 5126,
            "count" : 7223,
            "max" : [
                733.51904296875,
                14.65999984741211,
                -134.44900512695312
            ],
            "min" : [
                540.154052734375,
                1,
                -314.55902099609375
            ],
            "type" : "VEC3"
        },
        {
            "bufferView" : 13,
            "componentType" : 5126,
            "count" : 7223,
            "type" : "VEC3"
        },
        {
            "bufferView" : 14,
            "componentType" : 5126,
            "count" : 7223,
            "type" : "VEC2"
        },
        {
            "bufferView" : 15,
            "componentType" : 5123,
            "count" : 7785,
            "type" : "SCALAR"
        },
        {
            "bufferView" : 16,
            "componentType" : 5126,
            "count" : 45271,
            "max" : [
                733.7191162109375,
                17.04669952392578,
                -134.24900817871094
            ],
            "min" : [
                539.9540405273438,
                -0.4000000059604645,
                -314.7590026855469
            ],
            "type" : "VEC3"
        },
        {
            "bufferView" : 17,
            "componentType" : 5126,
            "count" : 45271,
            "type" : "VEC3"
        },
        {
            "bufferView" : 18,
            "componentType" : 5126,
            "count" : 45271,
            "type" : "VEC2"
        },
        {
            "bufferView" : 19,
            "componentType" : 5123,
            "count" : 67479,
            "type" : "SCALAR"
        },
        {
            "bufferView" : 20,
            "componentType" : 5126,
            "count" : 13608,
            "max" : [
                733.5040283203125,
                14.65999984741211,
                -134.46400451660156
            ],
            "min" : [
                540.1690063476562,
                0.04999999701976776,
                -314.54400634765625
            ],
            "type" : "VEC3"
        },
        {
            "bufferView" : 21,
            "componentType" : 5126,
            "count" : 13608,
            "type" : "VEC3"
        },
        {
            "bufferView" : 22,
            "componentType" : 5126,
            "count" : 13608,
            "type" : "VEC2"
        },
        {
            "bufferView" : 23,
            "componentType" : 5123,
            "count" : 17580,
            "type" : "SCALAR"
        }
    ],
    "bufferViews" : [
        {
            "buffer" : 0,
            "byteLength" : 10020,
            "byteOffset" : 0
        },
        {
            "buffer" : 0,
            "byteLength" : 10020,
            "byteOffset" : 10020
        },
        {
            "buffer" : 0,
            "byteLength" : 6680,
            "byteOffset" : 20040
        },
        {
            "buffer" : 0,
            "byteLength" : 2034,
            "byteOffset" : 26720
        },
        {
            "buffer" : 0,
            "byteLength" : 4860,
            "byteOffset" : 28756
        },
        {
            "buffer" : 0,
            "byteLength" : 4860,
            "byteOffset" : 33616
        },
        {
            "buffer" : 0,
            "byteLength" : 3240,
            "byteOffset" : 38476
        },
        {
            "buffer" : 0,
            "byteLength" : 816,
            "byteOffset" : 41716
        },
        {
            "buffer" : 0,
            "byteLength" : 41160,
            "byteOffset" : 42532
        },
        {
            "buffer" : 0,
            "byteLength" : 41160,
            "byteOffset" : 83692
        },
        {
            "buffer" : 0,
            "byteLength" : 27440,
            "byteOffset" : 124852
        },
        {
            "buffer" : 0,
            "byteLength" : 7620,
            "byteOffset" : 152292
        },
        {
            "buffer" : 0,
            "byteLength" : 86676,
            "byteOffset" : 159912
        },
        {
            "buffer" : 0,
            "byteLength" : 86676,
            "byteOffset" : 246588
        },
        {
            "buffer" : 0,
            "byteLength" : 57784,
            "byteOffset" : 333264
        },
        {
            "buffer" : 0,
            "byteLength" : 15570,
            "byteOffset" : 391048
        },
        {
            "buffer" : 0,
            "byteLength" : 543252,
            "byteOffset" : 406620
        },
        {
            "buffer" : 0,
            "byteLength" : 543252,
            "byteOffset" : 949872
        },
        {
            "buffer" : 0,
            "byteLength" : 362168,
            "byteOffset" : 1493124
        },
        {
            "buffer" : 0,
            "byteLength" : 134958,
            "byteOffset" : 1855292
        },
        {
            "buffer" : 0,
            "byteLength" : 163296,
            "byteOffset" : 1990252
        },
        {
            "buffer" : 0,
            "byteLength" : 163296,
            "byteOffset" : 2153548
        },
        {
            "buffer" : 0,
            "byteLength" : 108864,
            "byteOffset" : 2316844
        },
        {
            "buffer" : 0,
            "byteLength" : 35160,
            "byteOffset" : 2425708
        }
    ],
    "buffers" : [
        {
            "byteLength" : 2460868,
            "uri" : "data:application/octet-stream;base64,"
        }
    ]
}
