<?xml version="1.0" encoding="utf-8"?>
<!-- Generator: Adobe Illustrator 23.0.1, SVG Export Plug-In . SVG Version: 6.00 Build 0)  -->
<svg version="1.1" xmlns="http://www.w3.org/2000/svg" xmlns:xlink="http://www.w3.org/1999/xlink" x="0px" y="0px"
	 viewBox="0 0 415.8 194.8" style="enable-background:new 0 0 415.8 194.8;" xml:space="preserve">
<style type="text/css">
	.st0{display:none;}
	.st1{fill:none;stroke:#FFFFFF;stroke-width:39;stroke-miterlimit:10;}
	.st2{fill:none;stroke:#FFFFFF;stroke-width:50;stroke-miterlimit:10;}
	.st3{fill:none;stroke:#FFFFFF;stroke-width:42;stroke-miterlimit:10;}
	.st4{fill:none;stroke:#FFFFFF;stroke-width:40;stroke-miterlimit:10;}
</style>
<g id="Layer_1" class="st0">
</g>
<g id="Layer_2">
	<g>
		<polygon points="4.2,22.3 411.9,68.7 411.8,69.7 		"/>
	</g>
	<g>
		<polygon points="4.3,118.4 411.9,165.8 4.2,119.4 		"/>
	</g>
	<g>
		<polygon points="398.2,50 381.9,187.9 397.3,49.9 		"/>
	</g>
	<g>
		<polygon points="26.8,4.4 11.4,142.4 10.4,142.3 		"/>
	</g>
	<g>
		<path d="M56.6,48.7c-1.6-0.2-3.4-0.3-5.3-0.4c-4-0.3-7-0.1-9.1,0.5c-2,0.6-3.8,1.8-5.3,3.6c-1.4,1.7-2.5,4-3.5,7.1l-0.9-0.2
			L34.9,45l52.5,6l-0.9,14.4l-0.9,0c-0.3-3.7-1.1-6.5-2.3-8.5c-1.3-2-3.3-3.6-6-4.7c-2.3-1-6.4-1.8-12.1-2.5l-4.6,39.6
			c-0.3,2.6-0.4,4.6-0.2,5.9c0.2,1.3,0.6,2.4,1.3,3.4c0.6,0.8,1.4,1.5,2.3,1.9c0.9,0.4,2.1,0.8,3.5,1l-0.1,0.9l-24.8-2.9l0.1-0.9
			c1.5,0.1,2.7,0,3.7-0.2c1-0.2,1.8-0.7,2.7-1.3c0.9-0.7,1.6-1.7,2-3c0.4-1.2,0.8-3.2,1.1-5.8L56.6,48.7z"/>
		<path d="M111.3,108.1c-0.2-1.6-0.1-3.2,0.1-4.9c-3.6,2.9-7.6,4-12,3.5c-3.2-0.4-5.7-1.5-7.5-3.3c-1.7-1.8-2.4-4.1-2.1-6.9
			l1.6-13.5l0.3-3c0.2-1.8,0.2-3,0.1-3.9c-0.1-0.8-0.4-1.6-0.9-2.2c-0.7-0.8-2-1.5-3.9-2l0.1-0.9l11.4,1.3l-2.3,19.7
			c-0.3,2.8-0.5,4.8-0.4,6.2c0,1.4,0.3,2.5,0.7,3.4c0.5,0.9,1.2,1.7,2.2,2.4s2.2,1,3.5,1.2c1.4,0.2,2.8,0,4.2-0.4s2.4-1.1,3.2-2
			c0.9-0.9,1.5-2,1.9-3.3c0.4-1.3,0.8-3.4,1.1-6.5l0.9-7.6l0.3-2.9c0.2-1.8,0.3-3,0.2-3.9c-0.1-0.8-0.4-1.6-0.9-2.2
			c-0.6-0.8-1.9-1.5-3.9-2l0.1-0.9l11.4,1.3l-2.4,21c-0.3,2.7-0.4,4.5-0.4,5.6c0,1.1,0.2,2,0.5,2.7c0.4,0.8,0.9,1.4,1.4,1.8
			c0.6,0.4,1.5,0.7,2.6,0.9l-0.1,0.8L111.3,108.1z"/>
		<path d="M154,104.9l0.7,0.4c-1.2,2.6-2.8,4.5-4.8,5.5c-2,1-4.6,1.3-7.9,0.9c-5.2-0.6-9.1-2.6-11.8-6.1c-2.5-3.4-3.6-7.4-3-12.1
			c0.3-2.3,0.9-4.5,2-6.6c1.1-2.1,2.4-3.9,4-5.3c1.8-1.6,3.9-2.8,6.3-3.5c2.4-0.7,5-0.9,7.7-0.6c3.8,0.4,6.6,1.6,8.5,3.5
			c1.2,1.2,1.7,2.4,1.5,3.6c-0.1,0.8-0.4,1.5-1.1,2s-1.3,0.7-2.1,0.6c-1.7-0.2-2.8-1.6-3.3-4.1c-0.2-1.2-0.4-2-0.6-2.4
			c-0.2-0.4-0.4-0.8-0.8-1.2c-0.7-0.7-1.7-1.1-2.8-1.2c-1.5-0.2-3,0.1-4.4,0.8c-1.2,0.6-2.3,1.4-3.2,2.5c-0.9,1-1.8,2.4-2.6,4
			c-1.2,2.5-1.9,5-2.2,7.5c-0.3,2.3-0.1,4.6,0.5,6.9s1.5,4.3,2.7,5.9c2,2.6,4.4,4,7.4,4.4c2.5,0.3,4.6-0.3,6.4-1.7
			C152.1,107.9,153,106.7,154,104.9z"/>
		<path d="M175.1,59.5L172,86.1c1-1,1.9-1.8,2.7-2.3s1.7-1,2.7-1.3c2-0.7,4.2-0.9,6.6-0.7c3.1,0.4,5.5,1.2,7.4,2.7
			c1.3,1.1,2.2,2.3,2.5,3.7c0.4,1.4,0.4,3.4,0.1,6l-1.3,11.3l-0.3,3c-0.2,1.8-0.2,3.1-0.1,3.9s0.4,1.6,1,2.2c0.6,0.8,1.9,1.5,3.8,2
			l-0.1,0.8l-17.1-2l0.1-0.8c1.4,0,2.4-0.1,3-0.3s1.2-0.6,1.7-1.1c0.5-0.6,1-1.4,1.3-2.5c0.3-1.1,0.6-2.7,0.8-4.9l1.4-12.3
			c0.2-1.9,0.2-3.3,0.1-4.5c-0.2-1.1-0.5-2.1-1.1-3c-1.1-1.7-2.9-2.7-5.3-2.9c-6.2-0.7-9.9,3.9-11.1,13.7l-0.7,6.2l-0.3,2.9
			c-0.2,1.8-0.2,3.1-0.1,3.9c0.1,0.8,0.4,1.6,1,2.2c0.6,0.8,1.9,1.5,3.8,2l-0.1,0.8l-17.1-2l0.1-0.8c1.6,0,2.7-0.2,3.4-0.5
			c0.7-0.3,1.3-0.9,1.9-1.7c0.4-0.6,0.7-1.4,0.9-2.6c0.3-1.2,0.5-2.9,0.8-5.2l3.5-30.4c0.3-2.6,0.5-4.5,0.4-5.6c0-1.1-0.2-2-0.6-2.7
			c-0.4-0.8-0.8-1.4-1.4-1.7c-0.6-0.4-1.5-0.7-2.6-0.9l0.1-0.9L175.1,59.5z"/>
		<path d="M212.7,85.7l9.9,1.1l-0.2,1.5l-9.9-1.1l-2.6,22.6c-0.3,2.7-0.1,4.7,0.7,6c0.4,0.7,1,1.3,1.8,1.7c0.8,0.5,1.6,0.7,2.5,0.8
			c1.2,0.1,2.2,0,3-0.4c0.8-0.4,1.8-1.2,2.9-2.3l0.5,0.6c-1,1.5-2.4,2.5-4,3c-1.6,0.6-3.6,0.7-5.9,0.5c-3.1-0.4-5.2-1.2-6.5-2.6
			c-0.7-0.7-1.1-1.5-1.2-2.4c-0.1-0.9-0.1-2.5,0.2-4.7l2.7-23.5l-4.2-0.5l0.1-0.6c1.7-0.3,3.4-1.2,5-2.6c1-0.9,1.8-1.7,2.4-2.6
			c0.6-0.9,1.3-2,1.9-3.5l0.5-1.2l1.4,0.2L212.7,85.7z"/>
		<path d="M237.3,66.7l-3.1,26.6c1-1,1.9-1.8,2.7-2.3s1.7-1,2.7-1.3c2-0.7,4.2-0.9,6.6-0.7c3.1,0.4,5.5,1.2,7.4,2.7
			c1.3,1.1,2.2,2.3,2.5,3.7c0.4,1.4,0.4,3.4,0.1,6l-1.3,11.3l-0.3,3c-0.2,1.8-0.2,3.1-0.1,3.9s0.4,1.6,1,2.2c0.6,0.8,1.9,1.5,3.8,2
			l-0.1,0.8l-17.1-2l0.1-0.8c1.4,0,2.4-0.1,3-0.3s1.2-0.6,1.7-1.1c0.5-0.6,1-1.4,1.3-2.5c0.3-1.1,0.6-2.7,0.8-4.9l1.4-12.3
			c0.2-1.9,0.2-3.3,0.1-4.5c-0.2-1.1-0.5-2.1-1.1-3c-1.1-1.7-2.9-2.7-5.3-2.9c-6.2-0.7-9.9,3.9-11.1,13.7l-0.7,6.2l-0.3,2.9
			c-0.2,1.8-0.2,3.1-0.1,3.9c0.1,0.8,0.4,1.6,1,2.2c0.6,0.8,1.9,1.5,3.8,2l-0.1,0.8l-17.1-2l0.1-0.8c1.6,0,2.7-0.2,3.4-0.5
			c0.7-0.3,1.3-0.9,1.9-1.7c0.4-0.6,0.7-1.4,0.9-2.6c0.3-1.2,0.5-2.9,0.8-5.2l3.5-30.4c0.3-2.6,0.5-4.5,0.4-5.6c0-1.1-0.2-2-0.6-2.7
			c-0.4-0.8-0.8-1.4-1.4-1.7c-0.6-0.4-1.5-0.7-2.6-0.9l0.1-0.9L237.3,66.7z"/>
		<path d="M289,128.6c-0.2-1.6-0.1-3.2,0.1-4.9c-3.6,2.9-7.6,4-12,3.5c-3.2-0.4-5.7-1.5-7.5-3.3c-1.7-1.8-2.4-4.1-2.1-6.9l1.6-13.5
			l0.3-3c0.2-1.8,0.2-3,0.1-3.9c-0.1-0.8-0.4-1.6-0.9-2.2c-0.7-0.8-2-1.5-3.9-2l0.1-0.9L276,93l-2.3,19.7c-0.3,2.8-0.5,4.8-0.4,6.2
			s0.3,2.5,0.7,3.4c0.5,0.9,1.2,1.7,2.2,2.4s2.2,1,3.5,1.2c1.4,0.2,2.8,0,4.2-0.4s2.4-1.1,3.2-2c0.9-0.9,1.5-2,1.9-3.3
			c0.4-1.3,0.8-3.4,1.1-6.5l0.9-7.6l0.3-2.9c0.2-1.8,0.3-3,0.2-3.9c-0.1-0.8-0.4-1.6-0.9-2.2c-0.6-0.8-1.9-1.5-3.9-2l0.1-0.9
			l11.4,1.3l-2.4,21c-0.3,2.7-0.5,4.5-0.4,5.6c0,1.1,0.2,2,0.5,2.7c0.4,0.8,0.9,1.4,1.4,1.8c0.6,0.4,1.5,0.7,2.6,0.9l-0.1,0.8
			L289,128.6z"/>
		<path d="M305.9,97.2l11.3-0.1l-2.6,22.4l-0.3,2.9c-0.2,1.8-0.2,3-0.1,3.9c0.1,0.8,0.4,1.6,1,2.2c0.6,0.8,1.9,1.5,3.8,2l-0.1,0.8
			l-17.2-2l0.1-0.8c1.6,0,2.7-0.2,3.4-0.5c0.7-0.3,1.3-0.9,1.8-1.7c0.4-0.6,0.7-1.4,0.9-2.6s0.5-2.9,0.8-5.2l1.1-9.5
			c0.3-2.7,0.5-4.5,0.4-5.6c0-1.1-0.2-2-0.6-2.7c-0.4-0.8-0.8-1.4-1.4-1.7c-0.6-0.4-1.5-0.7-2.6-0.9L305.9,97.2z M315.7,82.8
			c-1-0.1-1.8-0.5-2.4-1.3c-0.6-0.7-0.8-1.6-0.7-2.6c0.1-1,0.5-1.7,1.3-2.3s1.6-0.8,2.6-0.7c1,0.1,1.8,0.5,2.4,1.3
			c0.6,0.7,0.8,1.6,0.7,2.5c-0.1,1-0.5,1.8-1.3,2.3C317.6,82.7,316.7,82.9,315.7,82.8z"/>
		<path d="M323.7,131.9l1.3-11l0.6,0.1c0.4,2.8,1.1,5,2,6.8c1.7,3.2,3.8,4.9,6.5,5.2c1.6,0.2,3.1-0.1,4.4-1c1.4-0.9,2.2-2.4,2.5-4.4
			c0.2-1.6-0.1-3.1-0.9-4.4c-0.4-0.7-1-1.4-1.8-2s-2-1.5-3.7-2.7c-3.1-2.1-5.1-3.8-6-5.1c-1.4-1.8-1.9-3.8-1.7-6
			c0.3-2.3,1.3-4.2,3-5.7c2-1.7,4.5-2.4,7.4-2.1c1.3,0.2,2.5,0.5,3.6,1.1l1.3,0.7c0.4,0.2,0.7,0.3,1.1,0.4c0.5,0.1,1-0.3,1.5-1
			l0.8,0.1l-0.6,8.9l-0.8-0.1c-0.1-1.3-0.3-2.3-0.6-3.1c-0.2-0.8-0.6-1.6-1.1-2.3c-0.7-1.1-1.5-2-2.5-2.6c-1-0.7-2-1.1-3-1.2
			c-1.4-0.2-2.7,0.2-3.9,1.1c-1.1,0.9-1.8,2.2-2,3.7c-0.1,1.3,0.2,2.5,1,3.6c0.8,1.1,2.1,2.2,3.9,3.3l3.9,2.3c2.3,1.4,4,3,5,4.8
			c1,1.8,1.4,3.8,1.1,6.1c-0.3,2.7-1.5,4.9-3.4,6.4c-2.3,1.8-5,2.6-8.1,2.2c-1.7-0.2-3.4-0.7-5.1-1.6c-1.1-0.6-1.7-0.9-2-1
			c-0.2-0.1-0.5-0.2-0.9-0.2c-0.9-0.1-1.6,0.2-2.2,0.9L323.7,131.9z"/>
	</g>
	<g>
		<path d="M363.1,156.3l-9.6-1.1l0-0.3c0.9,0,1.5-0.1,1.9-0.2c0.6-0.3,1-0.8,1.1-1.5c0-0.4,0-0.9-0.2-1.6l-0.2-0.6l-1-3.6l-6.4-0.7
			l-1,1.9l-0.5,0.9c-0.6,1-0.9,1.8-0.9,2.4c0,0.4,0,0.7,0.1,1c0.1,0.3,0.3,0.6,0.6,0.8c0.3,0.3,0.8,0.5,1.4,0.6l0,0.3l-6.5-0.7
			l0-0.3c0.5,0,1,0,1.4-0.2c0.4-0.2,0.8-0.5,1.3-0.9c0.4-0.4,0.7-0.8,1.1-1.4s0.9-1.5,1.5-2.7l6.9-13.1l0.8,0.1l4.6,16
			c0.3,1.2,0.6,2.1,0.9,2.6s0.5,0.9,0.8,1.2c0.2,0.2,0.5,0.4,0.8,0.5c0.3,0.1,0.7,0.3,1.3,0.4L363.1,156.3z M355,146.7l-2.2-7.9
			L349,146L355,146.7z"/>
		<path d="M370.9,147.3l-0.6,5.2c-0.1,1-0.1,1.7-0.1,2.2c0.1,0.5,0.2,0.9,0.5,1.3c0.2,0.3,0.5,0.5,0.8,0.7c0.3,0.2,0.8,0.3,1.3,0.4
			l0,0.3l-9.3-1.1l0-0.3c0.6,0,1,0,1.4-0.1c0.4-0.1,0.7-0.3,1-0.5c0.3-0.3,0.6-0.6,0.8-1.1s0.3-1.2,0.4-2.2l1.2-10.7
			c0.1-1,0.1-1.7,0.1-2.2c-0.1-0.5-0.2-0.9-0.5-1.3c-0.2-0.3-0.5-0.5-0.8-0.7c-0.3-0.2-0.8-0.3-1.3-0.4l0-0.3l7,0.8
			c1.2,0.1,1.9,0.2,2.3,0.3c1.5,0.2,2.7,0.6,3.5,1c0.9,0.5,1.6,1.2,2,2c0.4,0.8,0.6,1.8,0.5,2.8c-0.2,1.5-0.9,2.7-2.1,3.4
			c-0.4,0.2-0.8,0.4-1.2,0.5s-1,0.2-1.8,0.3c0.6,0.3,1,0.6,1.2,0.9c0.2,0.2,0.4,0.5,0.5,0.8c0.1,0.3,0.4,0.9,0.6,1.7
			c0.7,1.9,1.2,3.2,1.5,4.1c0.3,0.9,0.6,1.5,0.9,1.9c0.2,0.3,0.4,0.6,0.6,0.7s0.5,0.3,0.9,0.3l0,0.3l-4.8-0.6
			c-0.2-0.6-0.3-0.9-0.3-1.1l-0.8-2.4c-0.5-1.5-0.9-2.8-1.4-3.9c-0.5-1.1-1-1.9-1.5-2.4c-0.2-0.2-0.5-0.4-0.8-0.5
			c-0.3-0.1-0.7-0.2-1.1-0.3L370.9,147.3z M370.9,147l0.6,0.1c1.2,0.1,2.1,0.2,2.6,0.1c0.5-0.1,1.1-0.3,1.6-0.7
			c1.1-0.9,1.8-2,1.9-3.4c0.1-0.8,0-1.5-0.2-2.2c-0.2-0.7-0.6-1.3-1-1.8c-0.4-0.4-0.8-0.7-1.4-0.9c-0.5-0.2-1.3-0.4-2.4-0.5
			l-0.6-0.1L370.9,147z"/>
	</g>
</g>
</svg>
