<?xml version="1.0" encoding="utf-8"?>
<!-- Generator: Adobe Illustrator 23.0.1, SVG Export Plug-In . SVG Version: 6.00 Build 0)  -->
<svg version="1.1" xmlns="http://www.w3.org/2000/svg" xmlns:xlink="http://www.w3.org/1999/xlink" x="0px" y="0px"
	 viewBox="0 0 467.7 226.8" style="enable-background:new 0 0 467.7 226.8;" xml:space="preserve">
<style type="text/css">
	.st0{display:none;}
</style>
<g id="Layer_1" class="st0">
	
		<image style="display:inline;overflow:visible;" width="1356" height="798" xlink:href="../../Downloads/1779.JPG"  transform="matrix(0.2117 0 0 0.2117 -88.0944 -1767.2906)">
	</image>
</g>
<g id="Layer_2">
	<g>
		<polygon points="14.7,36.1 454.2,86.3 454.1,87.3 		"/>
	</g>
	<g>
		<polygon points="14.8,140.1 454.1,191.3 14.7,141.1 		"/>
	</g>
	<g>
		<path d="M379.5,169.2l3-0.6l8.2-13.6l-0.2-0.9l2.7-0.8l4.2,17.1l2.7,1.1l0,0.1l-8.8-1l0-0.1l3-0.4l-1.5-6.6l-5.1-0.6l-2.8,6.1
			l3.1,1.2l0,0.1L379.5,169.2L379.5,169.2z M392.5,162.6l-1.6-6.8l-3,6.3L392.5,162.6z"/>
		<path d="M398.1,171.2l3.4-0.6l0.7-6l-1.8,0l0-0.2l1.8-0.2l1-8.4l-2.9-1l0-0.2l7.6,0.9c2.8,0.3,6.2,2,5.9,4.7
			c-0.2,1.6-2.1,2.9-4.3,3.6c0.3,0.6,1,1.7,1.8,3l1.8,2.8c0.6,0.9,2,2.5,2.8,3l1.2,0.6l0,0.2l-4.5-0.5c-1.1-0.1-2.1-2.1-2.8-3.3
			l-1.4-2.3c-0.8-1.3-2-2.8-2.2-3.1l-0.9,0l-0.7,6.5l3.4,1.4l0,0.2l-9.8-1.1L398.1,171.2z M406.4,163.8c2.8-0.4,4-2,4.2-3.4
			c0.3-2.3-1.5-4.1-4.3-4.4l-0.9,8L406.4,163.8z"/>
	</g>
	<g>
		<path d="M50.3,115l11.5-1.5l5.2-48.3l-6,1c-9.1,1.6-13.9,7.3-16.1,13.5l-0.6-0.3l4-18.9c2.8,0.7,5.6,1.3,9.2,1.8L88.2,66
			c2.5,0.3,5.1,0.3,7.6,0.3l-0.1,19.4L95,85.8c-0.8-6.5-4.3-13.3-13.2-17.1l-5.6-2.4L71,114.6l11.5,4.4l-0.1,0.6l-32.3-4L50.3,115z"
			/>
		<path d="M100.1,109.9l2.1-18.3L94.8,90l0-0.4c4.7-0.7,11.2-1.9,15.6-3.6l0.5,0.1l-2.5,22c-0.6,5.1,0.6,10.6,6.1,11.2
			c3.1,0.4,6-1.2,8.5-2.8l2.6-22.2l-7.4-1.7l0-0.4c4.7-0.7,11.2-1.9,15.6-3.6l0.5,0.1l-3.5,30.3l7.4,1.7l0,0.4
			c-4.7,0.7-11.2,1.9-15.6,3.6l-0.5-0.1l0.7-6c-3.7,2.6-8.1,5.1-12.8,4.6C102.7,122.4,99.3,116.2,100.1,109.9z"/>
		<path d="M141.4,109.2c1.3-11.5,11.6-18.5,22.9-17.2c6.2,0.7,9.6,4.5,9.2,8.1c-0.4,3.5-6.7,8.1-9.7,10.6l-0.3-0.3
			c1.2-2,2.3-5.1,2.6-7.9c0.5-4-1.7-7.6-5.5-8c-5.6-0.6-10.2,4.8-11.1,12.3c-0.8,7.2,1.6,16.7,10.8,17.8c4.1,0.5,8-0.9,11.4-3.5
			l0.4,0.4c-4.3,5.2-10,8-16.4,7.2C145.9,127.5,140.2,118.8,141.4,109.2z"/>
		<path d="M171.3,129.6l7.8-1.4l5.3-45.5l-7.4-1.7l0-0.4c4.7-0.7,11.2-1.9,15.6-3.6l0.5,0.1l-2.8,24.1c3.7-2.6,8.1-5.1,12.8-4.6
			c7.2,0.8,10.6,7,9.9,13.3l-2.5,21.8c0,0,7.2,2.9,7.3,3.1l0,0.3l-22.5-2.6l0-0.3l7.1-1.4l2.2-19c0.6-5.1-0.6-10.6-6.1-11.2
			c-3.1-0.4-6,1.2-8.5,2.8l-3,25.7c0,0,6.6,2.9,6.7,3l0,0.3l-22.5-2.6L171.3,129.6z"/>
		<path d="M223.8,128.7l2.8-24.7l-6-0.7l0.1-0.6c5.2-1.8,9.9-3.9,14.6-7.7l0.5,0.1l-0.7,5.8l10.3,1.2l-2.6,3.7l-8.2-0.9l-2.8,24.2
			c-0.3,2.9,1,4.8,3.3,5c2.9,0.3,5.7-0.9,8.2-3.3l0.6,0.5c-3.2,3.8-7.6,6.7-12.6,6.1C226.3,137,223.3,133.8,223.8,128.7z"/>
		<path d="M241.1,137.6l7.8-1.4l5.3-45.5l-7.4-1.7l0-0.4c4.7-0.7,11.2-1.9,15.6-3.6l0.5,0.1l-2.8,24.1c3.7-2.6,8.1-5.1,12.8-4.6
			c7.2,0.8,10.6,7,9.9,13.3l-2.5,21.8c0,0,7.2,2.9,7.3,3.1l0,0.3l-22.5-2.6l0-0.3l7.1-1.4l2.2-19c0.6-5.1-0.6-10.6-6.1-11.2
			c-3.1-0.4-6,1.2-8.5,2.8l-3,25.7c0,0,6.6,2.9,6.7,3l0,0.3l-22.5-2.6L241.1,137.6z"/>
		<path d="M294.9,132.4l2.1-18.3l-7.4-1.7l0-0.4c4.7-0.7,11.2-1.9,15.6-3.6l0.5,0.1l-2.5,22c-0.6,5.1,0.6,10.6,6.1,11.2
			c3.1,0.4,6-1.2,8.5-2.8l2.6-22.2l-7.4-1.7l0-0.4c4.7-0.7,11.2-1.9,15.6-3.6l0.5,0.1l-3.5,30.3l7.4,1.7l0,0.4
			c-4.7,0.7-11.2,1.9-15.6,3.6l-0.5-0.1l0.7-6c-3.7,2.6-8.1,5.1-12.8,4.6C297.6,144.9,294.2,138.7,294.9,132.4z"/>
		<path d="M333.3,148.3l7.8-1.4l3.2-27.4l-7.4-1.7l0-0.4c4.7-0.7,11.2-1.9,15.6-3.6l0.5,0.1l-3.9,33.8c0,0,7.2,3,7.3,3.1l0,0.3
			l-23-2.7L333.3,148.3z M353.9,97.9L353.9,97.9c1.5,1.9,1.2,4.6-0.7,6.1v0c-1.9,1.4-4.6,1.1-6-0.7l0,0c-1.5-1.9-1.2-4.6,0.7-6.1
			l0,0C349.6,95.7,352.4,96,353.9,97.9z"/>
		<path d="M358.2,147l6.3-10.4l0.3,0.2c-1.4,5.7,1.6,14.2,7.8,14.9c3.7,0.4,6.8-2,7.1-5.4c0.3-2.4-0.9-4.2-3.3-5.7l-8.8-5.6
			c-3.5-2.2-4.3-5.8-3.9-8.8c0.9-7.5,8.2-10,14.1-9.3c3.7,0.4,8.4,2.3,10.4,4.2l-5.5,9.2l-0.4-0.2c0.9-5-0.5-10.6-5.8-11.3
			c-3.6-0.4-6.4,1.7-6.7,4.7c-0.3,2.4,1.1,4.1,3.4,5.6l8.8,5.7c3.6,2.3,4.6,5.7,4.2,8.9c-0.9,7.7-9.1,10.4-14.9,9.7
			C366.7,152.9,360.7,149.8,358.2,147z"/>
	</g>
	<g>
		<polygon points="439.4,66 421.8,215.2 438.4,65.9 		"/>
	</g>
	<g>
		<polygon points="39.1,16.7 22.5,166 21.5,165.9 		"/>
	</g>
</g>
<g id="Layer_3">
</g>
</svg>
